<svg xmlns="http://www.w3.org/2000/svg" viewBox="0 0 512 512">
  <defs>
    <linearGradient id="bg" x1="0%" y1="0%" x2="100%" y2="100%">
      <stop offset="0%" style="stop-color:#1B2A4A"/>
      <stop offset="100%" style="stop-color:#0F1B33"/>
    </linearGradient>
    <linearGradient id="gold" x1="0%" y1="0%" x2="0%" y2="100%">
      <stop offset="0%" style="stop-color:#D4B87A"/>
      <stop offset="100%" style="stop-color:#C9A96E"/>
    </linearGradient>
    <linearGradient id="hull" x1="0%" y1="0%" x2="0%" y2="100%">
      <stop offset="0%" style="stop-color:#FFFFFF"/>
      <stop offset="100%" style="stop-color:#E8E8E8"/>
    </linearGradient>
  </defs>
  <!-- Background circle -->
  <circle cx="256" cy="256" r="256" fill="url(#bg)"/>
  <!-- Water waves -->
  <path d="M60 340 Q128 310 196 340 Q264 370 332 340 Q400 310 468 340 L468 400 Q400 370 332 400 Q264 430 196 400 Q128 370 60 400Z" fill="url(#gold)" opacity="0.3"/>
  <path d="M60 370 Q128 340 196 370 Q264 400 332 370 Q400 340 468 370 L468 420 Q400 390 332 420 Q264 450 196 420 Q128 390 60 420Z" fill="url(#gold)" opacity="0.2"/>
  <!-- Ship hull -->
  <path d="M120 310 L160 200 L352 200 L392 310 Q340 330 256 330 Q172 330 120 310Z" fill="url(#hull)"/>
  <!-- Ship deck line -->
  <rect x="170" y="200" width="172" height="8" rx="2" fill="url(#gold)"/>
  <!-- Upper deck / cabin structure -->
  <rect x="185" y="160" width="142" height="40" rx="6" fill="#FFFFFF"/>
  <rect x="185" y="160" width="142" height="6" rx="3" fill="url(#gold)"/>
  <!-- Windows -->
  <circle cx="210" cy="182" r="6" fill="#1B2A4A"/>
  <circle cx="236" cy="182" r="6" fill="#1B2A4A"/>
  <circle cx="262" cy="182" r="6" fill="#1B2A4A"/>
  <circle cx="288" cy="182" r="6" fill="#1B2A4A"/>
  <!-- Funnel -->
  <rect x="240" y="118" width="32" height="42" rx="4" fill="url(#gold)"/>
  <rect x="248" y="124" width="16" height="8" rx="2" fill="#1B2A4A"/>
  <!-- Funnel smoke accent -->
  <circle cx="256" cy="108" r="8" fill="#FFFFFF" opacity="0.4"/>
  <circle cx="268" cy="98" r="6" fill="#FFFFFF" opacity="0.25"/>
</svg>
